<svg id="Layer_1" data-name="Layer 1" xmlns="http://www.w3.org/2000/svg" viewBox="0 0 413.8 302.2"><defs><style>.cls-1{fill:#f27313;}</style></defs><path class="cls-1" d="M156.7,71c-.8,5.7-.2,11.4-1.4,17.1a21.33,21.33,0,0,0-.3,9.4c.3,1.4-.3,3.1-.5,4.7a5,5,0,0,0-.2,1.2c-.2,7.6-.9,15.3-.7,22.9.2,7.4.1,14.8,0,22.2,0,2.3-.4,4.6-.4,6.9.1,1.3.2,2.6.4,3.9a16.2,16.2,0,0,1,.1,2.2c-.2,2.5-.6,4.9-.8,7.4-.1,1.3-.1,2.6-.2,4s.1,3-.7,4.4a4.13,4.13,0,0,0-.2,1.9c0,4.3-.1,8.7,0,13,0,2.7.4,5.5.4,8.2a7.1,7.1,0,0,1-.5,2.9c-1.3,2.8-1.1,5.7-.6,8.6a11,11,0,0,1-.2,5.4,2.71,2.71,0,0,1-2.8,2c-1.3,0-2.7.5-3.9.3a9.14,9.14,0,0,1-4.9-2.2c-1.9-1.9-3.7-4-5.7-5.9-1.1-1.1-2.5-1.9-3.7-2.9-1.5-1.2-3.3-2-4.2-3.9-.2-.4-1-.5-1.4-.8a9.63,9.63,0,0,1-2.5-1.6,94.61,94.61,0,0,0-8-7.5,26.82,26.82,0,0,1-4.7-5.4c-1.8-2.6-3.3-5.6-5.8-7.7a5.22,5.22,0,0,1-1.4-2.5c-.6-1.7-1.1-3.3-2.8-4.2-.4-.2-.6-.8-.9-1.1-1.3-1.4-2.4-2.9-4.3-3.7a3.86,3.86,0,0,1-1.5-1.6c-1.9-3.1-3.9-6.2-7-8.3a1.42,1.42,0,0,1-.8-.9c-.8-2.3-2.8-3.4-4.2-5.1-2-2.4-4.8-4-7.1-6a22.68,22.68,0,0,0-3.4-1.9,11.51,11.51,0,0,1-1.7-1.4,23.91,23.91,0,0,1-2.2-2.3c-.5-.6-.9-1.2-1.4-1.8-.7-1-1.1-2.2-2.3-2.9a2,2,0,0,1-.7-.9,14.69,14.69,0,0,0-3.6-5.3,28.32,28.32,0,0,1-2-2.8c-1.3-1.8-2.7-3.5-4.1-5.3-.3-.4-.7-.3-.9.2-.1.3-.2.7-.3,1-.2,2.7-.5,5.5-.6,8.2-.2,4.1-.4,8.1-.4,12.2,0,6.6.2,13.1.5,19.7,0,1.8.4,3.6.5,5.4l.3,5.4c.1,1.8.4,3.6.6,5.4.4,4,.6,7.9,1.1,11.9q.6,3.15,1.5,6.3c.7,2.6,1.8,5.2,1.5,8a30.92,30.92,0,0,1-.7,5.2,7.29,7.29,0,0,1-3,3.9,1,1,0,0,1-.9.2c-1.8-.2-3.6-.5-5.4-.8-.1,0-.2-.1-.2,0-2.4.8-4.9-.2-7.3.3a13.4,13.4,0,0,1-2,.1l-3.5.4c-3.1.3-4.8-.4-5.7-2.8L25.5,210a2.54,2.54,0,0,1-.1-2.4,2.57,2.57,0,0,0,.1-1.5c-.1-1.7-.2-3.5-.4-5.2a67,67,0,0,0-.8-7.7,21.46,21.46,0,0,1,0-6.2,32.09,32.09,0,0,0-.4-10.7,12.32,12.32,0,0,1-.2-5.4,104.51,104.51,0,0,0,1.4-18.6c0-3.2.6-6.4.8-9.6.2-2.7.5-5.5-.2-8.2a1.7,1.7,0,0,1-.1-.7c-.2-4.6-.4-9.3-.5-13.9v-5c-.6-2.7-1.3-5.3-.6-8.1a2.3,2.3,0,0,0-.4-1.4,13,13,0,0,1-.6-5.5V98.7a26.36,26.36,0,0,1,0-9.7,5,5,0,0,0-.2-1.2c0-1.7-.1-3.5-.1-5.2,0-3,.4-6,.2-8.9s2.5-6,5.5-5.3c1.6.4,3.2.9,4.8,1.3a3.89,3.89,0,0,1,2,1.6,11.59,11.59,0,0,0,3.4,2.8,25.62,25.62,0,0,1,7.3,6.2,59.73,59.73,0,0,0,5.4,5.8c3,2.8,5.8,5.8,8.5,8.8,1.8,2,3.3,4.3,5.4,6.1a14.83,14.83,0,0,1,2.9,3.7c2.2,3.7,5.3,6.6,8.2,9.7a25.22,25.22,0,0,1,4.1,5.6,47,47,0,0,0,3.8,5.3,9.91,9.91,0,0,1,1.1,1.7,61.74,61.74,0,0,0,3.9,6c1.6,2.4,3.7,4.3,5.5,6.4,1.5,1.7,2.8,3.7,4.3,5.4a56.79,56.79,0,0,0,4.7,5.1c3,2.8,6.3,5.4,9.3,8.3a33.25,33.25,0,0,1,3.7,4.7,16.44,16.44,0,0,0,5.2,4.6c.8.5,1.1.4,1.1-.5v-3.2c0-2.3.5-4.6-.5-6.8a1.7,1.7,0,0,1,0-1,21.15,21.15,0,0,0-.7-8.3,9.23,9.23,0,0,1-.1-3.7,33.15,33.15,0,0,0,0-8.9,21.61,21.61,0,0,1,.8-9.8,14.61,14.61,0,0,0,.2-7.2,25.42,25.42,0,0,1,0-8.7,5,5,0,0,0,.2-1.2c-.1-2-.4-4-.4-5.9,0-1.6.3-3.1.4-4.7.1-2.2.1-4.5.1-6.7a1.4,1.4,0,0,0-.3-.9c-1.1-1.4-.8-2.8-.5-4.4a24.42,24.42,0,0,0-.2-5.4,33.66,33.66,0,0,1-.3-4.4c.1-1.7.7-3.4-.2-5.1a1.72,1.72,0,0,1,.2-1.2,18.6,18.6,0,0,1,2.1-2.8,2.34,2.34,0,0,1,2.9-.7,9.39,9.39,0,0,0,6.6-.2,47.18,47.18,0,0,1,6.5-1.5,13.55,13.55,0,0,1,2-.2,41.47,41.47,0,0,0,6.1-.2c1.7-.2,3.6.5,5.4.8.5.1,1,.3,1.4.4,1.5.4,1.9.9,2,2.4A9.56,9.56,0,0,0,156.7,71Z"/><path class="cls-1" d="M359,68.5c.4,0,1.2-.2,2-.2a70.24,70.24,0,0,1,12.9,1.1,40.32,40.32,0,0,0,6,.4,6.5,6.5,0,0,0,2.3-.9,2.11,2.11,0,0,1,2.5.2,9.44,9.44,0,0,0,3.3,2c1.7.5,2.7,4.1,2.1,6.1-.3,1-.7,2-1,3.1a9,9,0,0,0-.4,4.3,36.17,36.17,0,0,1,.1,5.7,1.4,1.4,0,0,1-.3.9c-1.3,1.4-1.1,3-1.2,4.7-.1,3-.3,6.1-.3,9.1a70.39,70.39,0,0,1-.5,10.3,14.46,14.46,0,0,0,.4,2.9c.1,1.7,0,3.3,0,5,.1,2.7.5,5.5.5,8.2a22.3,22.3,0,0,0,.4,6.3c.4,1.4,0,3.1,0,4.7a4.87,4.87,0,0,0-.1,1.2,22.24,22.24,0,0,1,.3,6.3c-.2,2.6-.5,5.1-.9,7.6a4.14,4.14,0,0,0-.2,1.5c.7,1.7-.1,3.4-.1,5.1V174c0,1.8-.4,3.6-.4,5.4-.1,4-.2,8,0,12a50.79,50.79,0,0,1-.1,7.8c-.2,2.2.4,4.5-.5,6.7a1.7,1.7,0,0,0,0,1c1.1,3-.2,6.1,0,9.1a6.73,6.73,0,0,0,.1,2c1.2,2.3.5,4.5.1,6.8-.3,1.2-.4,2.4-.7,3.7a1.24,1.24,0,0,1-1.4,1.1c-2.9.1-5.8.5-8.6-.4a6.73,6.73,0,0,0-2-.1c-2.2-.2-4.5-.3-6.7-.5a1.85,1.85,0,0,1-.7-.2,37.62,37.62,0,0,1-2.5-3.1,4.25,4.25,0,0,1-.3-3.8,6.63,6.63,0,0,0,.2-4.4c-.8-2.3-.4-4.6-.4-6.9,0-.4.2-.8.1-1.2-1.2-4.3-.4-8.6-.7-12.9-.1-1.7-.4-3.4-.5-5.2s-.4-3.8.6-5.6a1.74,1.74,0,0,0,.3-1.4c-.6-3.1.2-6.2-.5-9.3a60.13,60.13,0,0,1-1-8.4c-.1-1.1.2-2.4-.9-2.9s-2,.5-2.7,1.2c-.5.4-1,.8-1.6,1.2-1.6,1.3-3.3,2.5-4.9,3.8a7.1,7.1,0,0,1-1.4,1c-2.4,1.1-3.8,3.1-5.4,5s-2.8,4.2-5.1,5.2c-2,.8-3,2.8-4.7,3.8a2.43,2.43,0,0,0-1,1.4c-1,3.4-3.1,6.2-5.1,9a2.36,2.36,0,0,1-.9.8,5.57,5.57,0,0,0-2.9,3.3,5.39,5.39,0,0,1-.7,1.3c-1.3,1.4-1.8,3.1-2.5,4.8a11.81,11.81,0,0,1-2.3,3.5,40.11,40.11,0,0,0-5.4,8,36.8,36.8,0,0,1-4.5,5.9c-.6.7-1.2,1.4-1.7,2.1a4.77,4.77,0,0,1-7,1.8,10.92,10.92,0,0,0-6.8-1.8c-1.3,0-2.6-.3-3.9-.4a3.79,3.79,0,0,0-1.5,0c-2.1.8-3.7,0-5.3-1.1-.8-.5-1.5-1.1-2.2-1.6a5,5,0,0,1-.5-6.7,4.53,4.53,0,0,1,1.9-1.1c.9-.4,1.6-.8,1.7-1.9a3.29,3.29,0,0,1,.7-1.6c2.2-2.4,3.6-5.3,5.5-7.9,1.2-1.6,2.6-3,3.9-4.5,1-1.2,1.9-2.5,2.8-3.8.7-.9,1.5-1.8,2.2-2.6.3-.4.8-.7,1-1.1a11.43,11.43,0,0,1,3.1-4.1l.2-.2c1.4-2.8,3.8-4.9,5.3-7.7a14.79,14.79,0,0,1,1.3-2.1c2.1-2.9,4-6,6.5-8.5,1.9-1.9,3.3-4.4,5.7-5.8a2.66,2.66,0,0,0,1-1.1,7,7,0,0,1,3.1-2.8c.7-.3,1.4-.7,1.1-1.7s-.7-1.6-1.7-1.6c-2.4.1-4.4-1.4-6.7-1.9-1.4-.3-2.6-1.4-4-1.9a45.14,45.14,0,0,1-9.1-5.1c-1.9-1.2-3.9-2.3-5.6-3.6a20.5,20.5,0,0,1-3.4-3.2c-.9-1-1.5-2.2-2.7-2.9a3.46,3.46,0,0,1-1.1-1c-.9-2.4-2.8-4.1-3.7-6.3s-1.6-4.5-2.4-6.8a1.7,1.7,0,0,1-.1-.7c.3-2.8-.4-5.6,0-8.4.1-1,.8-2,.9-3.1.3-2.3,2-4.2,2.3-6.5a13.52,13.52,0,0,1,.5-2.9c.9-2.3,1.9-4.6,2.9-6.8a4.73,4.73,0,0,1,1.1-1.3c1.2-1.2,2.7-2.2,3.5-3.8a1.21,1.21,0,0,1,.5-.5c2.2-1.1,3.5-3.2,5.2-4.8,2.4-2.2,4.7-4.4,8-5.4s6.3-2.1,9.7-2a2.54,2.54,0,0,0,1.2-.2c1.7-1.1,3.7-1.3,5.6-1.8,2.3-.6,4.6-1.4,6.9-2.1a1.85,1.85,0,0,1,.7-.2c2.8.4,5.3-1,8-1.6a45.35,45.35,0,0,1,7.4-.9A61.38,61.38,0,0,1,359,68.5Zm4.3,49.8a202.39,202.39,0,0,1,.5-20.6,5.92,5.92,0,0,1,.5-1.9c.4-.8.1-1-.7-1H352.4a16.68,16.68,0,0,1-3.2-.2,16.27,16.27,0,0,0-7.6.1,10,10,0,0,1-3.4.5,8.86,8.86,0,0,0-3.9.6,3,3,0,0,1-3.3-.1,1.42,1.42,0,0,0-1.1-.1c-2,1.6-4.6,1.8-6.5,3.4s-4.1,3-6.1,4.6c-1.4,1.2-2.2,2.9-3.4,4.2a11.74,11.74,0,0,0-2.3,4.6,4,4,0,0,0,.2,2.4c.7,2.4,1.6,4.9,2.4,7.3.4,1.4.3,3.1,2.3,3.4.2,0,.5.5.6.8a4.88,4.88,0,0,0,2.5,2.4c.5.3,1.2.5,1.5.9.7,1.3,2,1.5,3.1,1.9a62.63,62.63,0,0,1,6.1,2.1,47.77,47.77,0,0,0,7.5,2.7c1,.3,2.1.4,3.1.8a23.72,23.72,0,0,0,10.6.9,50,50,0,0,1,5.5-.1c.6,0,1.3.2,2,.2,5.3,0,5.3-.9,5.1-5.7,0-1.4-.4-2.8-.4-4.2a54.33,54.33,0,0,1-.4-9.9Z"/><path class="cls-1" d="M247.8,158c.3-4.9.2-9.8,1.2-14.6.3-1.2-.2-2.6.2-3.7.7-2.1,0-4.1-.1-6.1s-.2-4.1-.3-6.2v-.8c.7-2.6-.2-5.1-.1-7.7.1-1.9.4-3.8.4-5.7a43.18,43.18,0,0,0-.5-6.2c-.6-4-.7-8.1-1.1-12.1-.4-4.6-.3-9.3-1.2-13.8a33.06,33.06,0,0,1-.1-7.7c0-1.1,1.7-2.6,3.3-2.5a29.85,29.85,0,0,0,6.7-.6,73.6,73.6,0,0,0,10.5-1.4,22.38,22.38,0,0,1,5.2-.5,4,4,0,0,1,2.7,1.1,8.31,8.31,0,0,1,2.5,7,28.4,28.4,0,0,0,0,9.2,26.61,26.61,0,0,0,1,4.9,2.46,2.46,0,0,1-.1,1.2c0,.5-.3,1.1-.1,1.5.8,1.7.2,3.3-.2,4.9-.5,1.9-.4,3.9-1,5.9-.6,1.8-.2,4,.2,5.9a23.31,23.31,0,0,1-.1,5.9c-.3,3-1,5.9-1.2,8.8a34.39,34.39,0,0,0,.4,9.6,15,15,0,0,1,.7,5.1c-.4,4.4.6,8.6,1.5,12.9a17.74,17.74,0,0,1,.2,3.2c0,1.1,0,2.2.1,3.2a56.47,56.47,0,0,1-.4,14.8c-.5,3.2-.8,6.4-1.3,9.6a45.78,45.78,0,0,1-2,8.9,21.77,21.77,0,0,1-2.8,4.6c-2.3,3.5-5,6.6-7.5,9.9-1.1,1.5-2.5,2.9-2.3,5.1a2.14,2.14,0,0,1-.8,1.7,11.1,11.1,0,0,1-4.8,3.1,2.23,2.23,0,0,0-1.8,1.9c-.1,1.2-1,1.8-1.9,2.4a40,40,0,0,1-8.2,3.6,55.06,55.06,0,0,1-8.7,2.8c-1.5.3-3.1.5-4.6.8-3.1.6-6.1,1.4-9.4,1.1a9.52,9.52,0,0,1-4.4-1.4,11.51,11.51,0,0,0-5.9-2.2c-2.1-.2-4-1.7-6.3-1.7-.3,0-.6-.5-1-.8s-.9-.9-1.4-1c-2.2-.4-3.8-2-5.7-2.9-.8-.4-1.5-1-2.3-1.5-.6-.4-1.3-.6-1.9-1a12.75,12.75,0,0,1-2.5-1.5c-1.9-2.2-3.7-4.5-5.5-6.8-1.2-1.6-2.5-3.1-3.6-4.8a9.58,9.58,0,0,1-1.2-3.2,16.33,16.33,0,0,0-1.9-6.4,4.42,4.42,0,0,1-.6-1.6c-.2-2.6-.4-5.1-.6-7.7a13.55,13.55,0,0,0-.2-2c-.5-2-1.1-4-1.6-6-.4-1.6-.7-3.2-1-4.9a1.73,1.73,0,0,1-.1-1c.9-1.7-.1-3.2-.2-4.9l-.1-2.1v-1.7a5.39,5.39,0,0,0-.3-1c-.4-3.8-.7-7.6-1.1-11.4a4.68,4.68,0,0,0-.2-1.7,6.13,6.13,0,0,1-.6-4.6c.6-2.6-1-4.8-.6-7.3.1-.4-.4-.9-.5-1.4s-.5-1.2-.3-1.6c.6-1.5,0-3-.2-4.4-.2-2.1-.9-4.3-.8-6.4.2-2.9-.2-5.7-.1-8.5s.1-5.8,0-8.8c-.1-2.5-.6-4.9-.8-7.4-.1-1.6.1-3.1.1-4.7V90.3a9.7,9.7,0,0,1,.1-1.7,13.4,13.4,0,0,0,.1-2,3.31,3.31,0,0,1,0-2.4,4.84,4.84,0,0,0,0-1.7c-.1-1.1-.4-2.3-.5-3.4a2.13,2.13,0,0,0-1.5-2c-2-.8-2.2-1.3-2-3.4a23.76,23.76,0,0,1,.6-3.7,4.19,4.19,0,0,1,.9-1.4c.7-.8,1.5-1.6,2.1-2.4a3.2,3.2,0,0,1,3.2-1,34.13,34.13,0,0,1,5.4,1c1.9.6,3.6,1.1,5.6.4a2.62,2.62,0,0,1,1.5.2,16.78,16.78,0,0,0,5.9.7.85.85,0,0,1,.7,0c2.6,1.2,5.3,2.4,7.8,3.8a2.24,2.24,0,0,1,.9,2.9,21.14,21.14,0,0,0-1,6.6c0,1.3-.8,2.5-1.1,3.8a9.47,9.47,0,0,0-.7,2.9,47.81,47.81,0,0,1-.9,7.6,27.9,27.9,0,0,0-.2,5c0,1.8.6,3.5.1,5.4-.3,1,.3,2.3.5,3.4.3,1.7.7,3.4,1,5.1a22.5,22.5,0,0,1,.4,4.4c0,1.7-.3,3.4-.4,5.1a2.44,2.44,0,0,0,0,1.2c.7,2.6.5,5.4.8,8,.2,2.3.5,4.6.7,6.9.2,3.3-.1,6.6.4,10,.3,1.7-.3,3.4-.2,5.2a45.5,45.5,0,0,0,.4,5.2c1.1,6.5,2.2,13,3.4,19.6a21,21,0,0,0,.6,2.4c.5,1.7,1,3.3,1.4,5,.6,2.2,2.1,3.9,3.4,5.7a17.33,17.33,0,0,0,1.7,2.1c1.1,1.4,2.1,2.7,4.1,3a5.15,5.15,0,0,1,2,.9c1.7,1.3,3.7,1.5,5.6,1.8a11.26,11.26,0,0,0,3.2-.2,23.25,23.25,0,0,0,3.6-.8,17.72,17.72,0,0,0,3.1-1.5c2-1.4,4.2-2.7,5.5-4.9,1.2-1.9,2.5-3.7,3.6-5.6a8.75,8.75,0,0,0,1-2.2c.7-2.5,1.4-4.9,2-7.4a17.51,17.51,0,0,1,2.4-5.2,12.85,12.85,0,0,0,1.8-6.6A53.41,53.41,0,0,1,247.8,158Z"/><path class="cls-1" d="M231.4,25.8c1.5,0,2.9,1,2.6,2-.7,2.4.9,4.3,1.3,6.4.2.9.4,1.9.6,2.9a34.61,34.61,0,0,1-1,11.1,2.63,2.63,0,0,1-.7,1.5c-2.1,2.2-2.9,5-3.9,7.7a34.1,34.1,0,0,0-1.4,5.5,3.79,3.79,0,0,0,0,1.5c.6,2.6,1.2,5.1,1.9,7.7.4,1.4.2,2.2-1.1,2.8a5.64,5.64,0,0,1-1.2.4c-2,.2-4.1.5-6.2.5a3.18,3.18,0,0,1-2-.8,21.1,21.1,0,0,1-1.9-2.3,23.55,23.55,0,0,1-3.5-8.5,9.23,9.23,0,0,1,.9-6.1c1.4-2.9,2.9-5.7,4.6-8.5.8-1.4,1.9-2.6,2.7-4.1a16,16,0,0,0,1.5-5.7,7.42,7.42,0,0,0-1-3.5,23.94,23.94,0,0,0-2.1-3.4q-1.35-2.1.9-3.3c2.7-1.4,5.4-2.6,8.1-3.8C230.7,25.9,231,25.8,231.4,25.8Z"/><path class="cls-1" d="M272.4,18c-.5,3.1-.6,5.8-2.9,7.7a3.17,3.17,0,0,0-.8,1.2,14.9,14.9,0,0,1-3.9,5.7c-2.3,2.3-3.2,5.1-4.1,8-.4,1.4.3,2.6.8,3.8s1.2,2.4,1.8,3.6a1.82,1.82,0,0,1-.6,2.6c-.1,0-.1.1-.2.1a26,26,0,0,1-2.5,1c-1.8.7-3.7,1.5-5.5,2.2a5.5,5.5,0,0,1-2.2.2,1.77,1.77,0,0,1-1.6-1.9h0c.5-2-.2-4-.6-5.8a26,26,0,0,1,.3-11.1,13.32,13.32,0,0,1,3-6.2,14.48,14.48,0,0,0,2.2-3.8c.9-1.7,1.6-3.5,2.3-5.2a9.12,9.12,0,0,0,.4-6.3,45.91,45.91,0,0,1-1-5.1,2.09,2.09,0,0,1,1-2.3,3.51,3.51,0,0,1,1.4-.6q3.45-.15,6.9,0a2,2,0,0,1,1.2.8c1.2,1.8,2.7,3.6,3.3,5.8C271.5,14.5,272,16.5,272.4,18Z"/><path class="cls-1" d="M195.4,6.3h1c3.6-.2,3-.3,5.1,2.8a16.49,16.49,0,0,1,2.9,8.8c.1,2.6.1,5.5-2.4,7.5a5.85,5.85,0,0,0-1,1.7,28.53,28.53,0,0,1-4.3,6,13.51,13.51,0,0,0-3.5,8.3,5.83,5.83,0,0,0,.6,2.6c.5,1.3,1.3,2.5,1.9,3.8a2.07,2.07,0,0,1-.6,2.8.37.37,0,0,1-.3.1,18,18,0,0,1-2.1.8c-1.9.7-3.7,1.4-5.6,2a6.52,6.52,0,0,1-2.4.2c-1.1-.1-1.7-.7-1.4-1.6.7-2.3-.3-4.4-.8-6.5a16.81,16.81,0,0,1-.2-5.9,41.53,41.53,0,0,1,1.5-7,5.94,5.94,0,0,1,1.8-2.9c1.8-1.6,2.4-3.7,3.4-5.7a22.05,22.05,0,0,0,1.8-5.1,11.37,11.37,0,0,0,.3-3.7c-.2-2-.7-4.1-1.1-6.1-.3-1.7.3-2.8,2-3,1.1,0,2.3,0,3.4.1Z"/><polygon class="cls-1" points="45.6 274.2 31.9 251.9 24.4 251.9 24.4 287.2 31.5 287.2 31.5 264.9 45.6 287.2 52.8 287.2 52.8 251.9 45.6 251.9 45.6 274.2"/><path class="cls-1" d="M76.4,251c-5.9,0-10.5,2.2-13.6,6.6a20.81,20.81,0,0,0-3.5,12.1,20.09,20.09,0,0,0,4.2,13c3.1,3.6,7.4,5.4,12.8,5.4,5.8,0,10.3-2.1,13.5-6.2a20.87,20.87,0,0,0,4-12.9,19.53,19.53,0,0,0-3.5-11.9C87.2,253.1,82.5,251,76.4,251Zm7.5,26.8c-1.4,2.3-3.8,3.4-7.1,3.4-3.6,0-6.1-1-7.6-3.1a13.5,13.5,0,0,1-2.4-8.2c0-4.1.9-7.1,2.8-9.1a9,9,0,0,1,7.1-3,8.65,8.65,0,0,1,7,3,12.4,12.4,0,0,1,2.6,8.2,17.74,17.74,0,0,1-2.4,8.8Z"/><polygon class="cls-1" points="128.9 273.6 122.9 251.9 115.9 251.9 109.8 273.6 104.8 251.9 96.9 251.9 106.2 287.2 113 287.2 119.4 264.5 125.7 287.2 132.6 287.2 141.9 251.9 133.9 251.9 128.9 273.6"/><polygon class="cls-1" points="183.6 251.9 175.2 266 166.8 251.9 158.1 251.9 171.5 273.1 171.5 287.2 178.9 287.2 178.9 273.1 192.4 251.9 183.6 251.9"/><path class="cls-1" d="M206.9,251c-5.9,0-10.5,2.2-13.6,6.6a20.81,20.81,0,0,0-3.5,12.1,20.09,20.09,0,0,0,4.2,13c3.1,3.6,7.4,5.4,12.8,5.4,5.8,0,10.3-2.1,13.5-6.2a20.87,20.87,0,0,0,4-12.9,19.53,19.53,0,0,0-3.5-11.9C217.8,253.1,213.1,251,206.9,251Zm.5,30.3c-3.6,0-6.1-1-7.6-3.1a13.5,13.5,0,0,1-2.4-8.2c0-4.1.9-7.1,2.8-9.1a9,9,0,0,1,7.1-3,8.65,8.65,0,0,1,7,3,12.4,12.4,0,0,1,2.6,8.2,15.79,15.79,0,0,1-2.4,8.7C213,280.1,210.7,281.3,207.4,281.3Z"/><path class="cls-1" d="M252,273.4a11,11,0,0,1-.9,4.9c-1.1,2-3.1,3-6.3,3-2.6,0-4.3-.9-5.3-2.8a9.65,9.65,0,0,1-1.1-5.1V251.9H231v19.6c0,4.2.6,7.5,1.8,9.8,2.2,4.4,6.4,6.7,12.5,6.7s10.3-2.2,12.5-6.7c1.2-2.4,1.8-5.6,1.8-9.8V251.9H252Z"/><path class="cls-1" d="M312.1,282.6a12.69,12.69,0,0,1-.3-2.4l-.2-4.3c-.1-2.2-.5-3.8-1.4-4.9a6.79,6.79,0,0,0-1.2-1.2,11.23,11.23,0,0,0,1.8-2,9.71,9.71,0,0,0,1.4-5.6c0-4.3-1.8-7.4-5.3-9a16.22,16.22,0,0,0-6.6-1.2H284.1v35.3h7.4V273.5h8.2a8.71,8.71,0,0,1,3.1.4c.6.3,1.4.9,1.5,3l.3,5.4c.1,1.8.2,2.4.2,2.8a5.27,5.27,0,0,0,.5,1.5l.4.8h7.8V284l-.9-.4C312.3,283.5,312.2,282.9,312.1,282.6Zm-7.2-20.1c0,1.6-.4,2.7-1.1,3.2a7,7,0,0,1-3.9,1h-8.3v-8h8.9a6.67,6.67,0,0,1,2.8.5C303.9,259.5,304.9,260.3,304.9,262.5Z"/><path class="cls-1" d="M341.6,273.4a11,11,0,0,1-.9,4.9c-1.1,2-3.1,3-6.3,3-2.6,0-4.3-.9-5.3-2.8a9.65,9.65,0,0,1-1.1-5.1V251.9h-7.4v19.6c0,4.2.6,7.5,1.8,9.8,2.2,4.4,6.4,6.7,12.5,6.7s10.3-2.2,12.5-6.7c1.2-2.4,1.8-5.6,1.8-9.8V251.9h-7.4v21.5Z"/><polygon class="cls-1" points="378 251.9 378 274.2 364.3 251.9 356.8 251.9 356.8 287.2 363.9 287.2 363.9 264.9 377.9 287.2 385.2 287.2 385.2 251.9 378 251.9"/></svg>