<svg id="Layer_1" data-name="Layer 1" xmlns="http://www.w3.org/2000/svg" viewBox="0 0 413.83 302.2"><defs><style>.cls-1{font-size:55px;stroke:#000;stroke-miterlimit:10;stroke-width:3px;font-family:MyriadPro-Regular, Myriad Pro;letter-spacing:0.03em;}.cls-2{letter-spacing:-0.01em;}.cls-3{letter-spacing:0em;}.cls-4{letter-spacing:0.04em;}</style></defs><path d="M156.72,71c-.75,5.65-.24,11.4-1.36,17.07a22.6,22.6,0,0,0-.32,9.39c.33,1.44-.28,3.1-.48,4.66a10.42,10.42,0,0,0-.22,1.22c-.23,7.64-.85,15.27-.69,22.93.16,7.41.08,14.83,0,22.24,0,2.32-.36,4.64-.41,6.95a37.48,37.48,0,0,0,.37,3.94,13.05,13.05,0,0,1,.07,2.25c-.23,2.47-.56,4.93-.79,7.4-.12,1.32-.12,2.65-.19,4s.09,3-.72,4.38a4.15,4.15,0,0,0-.21,1.95c0,4.34-.1,8.67,0,13,0,2.74.35,5.47.42,8.2a6.8,6.8,0,0,1-.53,2.9c-1.26,2.8-1.07,5.67-.61,8.56a10.08,10.08,0,0,1-.21,5.39,2.73,2.73,0,0,1-2.76,2c-1.32,0-2.67.5-3.94.31a8.7,8.7,0,0,1-4.91-2.18c-1.95-1.93-3.72-4-5.69-5.95-1.1-1.07-2.46-1.89-3.68-2.86-1.51-1.18-3.3-2-4.23-3.89-.2-.41-1-.51-1.45-.79a10.65,10.65,0,0,1-2.47-1.55c-2.5-2.66-5.21-5.07-8-7.47a27.16,27.16,0,0,1-4.72-5.38c-1.79-2.65-3.31-5.55-5.82-7.72a5.75,5.75,0,0,1-1.45-2.53c-.55-1.7-1.11-3.3-2.79-4.25-.4-.23-.61-.77-.94-1.13-1.27-1.43-2.45-2.93-4.29-3.74a4,4,0,0,1-1.53-1.55c-1.92-3.12-3.9-6.19-7-8.29a2.07,2.07,0,0,1-.83-.91c-.75-2.27-2.81-3.41-4.24-5.1-2-2.4-4.76-4-7.11-6a24.39,24.39,0,0,0-3.44-1.93,10.36,10.36,0,0,1-1.71-1.4c-.76-.74-1.49-1.51-2.2-2.3A18.93,18.93,0,0,1,64.28,141c-.7-1-1.12-2.23-2.32-2.87a1.7,1.7,0,0,1-.72-.95,14.41,14.41,0,0,0-3.62-5.3c-.77-.83-1.31-1.89-2-2.8-1.35-1.78-2.73-3.54-4.12-5.29-.35-.43-.7-.34-.88.2a4,4,0,0,0-.27,1c-.22,2.72-.48,5.45-.61,8.19-.2,4.06-.44,8.13-.41,12.2,0,6.57.25,13.13.46,19.7,0,1.82.4,3.62.55,5.44s.19,3.58.34,5.37.41,3.62.57,5.43c.36,4,.56,7.94,1.06,11.88a44.85,44.85,0,0,0,1.52,6.28c.72,2.63,1.79,5.19,1.47,8a35,35,0,0,1-.65,5.16,7.37,7.37,0,0,1-3,3.88,1.44,1.44,0,0,1-.93.22c-1.8-.25-3.59-.54-5.38-.82-.08,0-.17-.06-.24,0-2.4.78-4.87-.17-7.28.33a18.82,18.82,0,0,1-2,.13l-3.46.35c-3.07.31-4.76-.4-5.68-2.84-.49-1.32-1-2.62-1.53-3.94a2.87,2.87,0,0,1-.15-2.4,3.12,3.12,0,0,0,.11-1.47c-.1-1.73-.23-3.46-.38-5.19-.22-2.56-.31-5.14-.75-7.66A22.37,22.37,0,0,1,24,187c.33-3.55.54-7.1-.43-10.66a12.91,12.91,0,0,1-.21-5.43,103.82,103.82,0,0,0,1.43-18.55c0-3.2.62-6.41.81-9.63.17-2.73.48-5.48-.23-8.19a3.07,3.07,0,0,1-.11-.73c-.18-4.64-.37-9.28-.52-13.92-.05-1.42,0-2.84,0-4.25a3.12,3.12,0,0,0,0-.75c-.63-2.65-1.3-5.29-.59-8.06a2.66,2.66,0,0,0-.35-1.42,14.62,14.62,0,0,1-.63-5.54,7.21,7.21,0,0,0,0-1.23,27,27,0,0,1,0-9.65A5.67,5.67,0,0,0,23,87.8c0-1.73-.12-3.47-.09-5.2,0-3,.35-6,.17-8.94s2.52-6,5.53-5.28c1.61.36,3.18.88,4.77,1.32a3.59,3.59,0,0,1,2,1.58,10.8,10.8,0,0,0,3.38,2.78,25.9,25.9,0,0,1,7.35,6.21,49.44,49.44,0,0,0,5.44,5.79A121.45,121.45,0,0,1,60,94.9c1.84,2,3.33,4.31,5.44,6.11a14.6,14.6,0,0,1,2.9,3.66c2.19,3.7,5.29,6.58,8.17,9.68a27.9,27.9,0,0,1,4.14,5.57,52.52,52.52,0,0,0,3.75,5.26,11.3,11.3,0,0,1,1.09,1.66,57.15,57.15,0,0,0,3.91,6c1.58,2.41,3.68,4.28,5.53,6.41,1.52,1.74,2.83,3.67,4.32,5.44a60,60,0,0,0,4.7,5.12c3,2.82,6.29,5.41,9.3,8.27a38.42,38.42,0,0,1,3.71,4.67,17.49,17.49,0,0,0,5.15,4.58c.8.47,1.06.37,1.09-.49,0-1.08,0-2.17,0-3.25,0-2.28.47-4.6-.46-6.83a2.1,2.1,0,0,1,0-1,20.65,20.65,0,0,0-.74-8.26,8.29,8.29,0,0,1-.08-3.71,29.9,29.9,0,0,0,0-8.91,22,22,0,0,1,.85-9.84,15,15,0,0,0,.23-7.15,26.55,26.55,0,0,1,0-8.67,5.11,5.11,0,0,0,.16-1.22c-.13-2-.4-4-.42-5.94,0-1.56.32-3.12.38-4.68.09-2.24.08-4.49.08-6.74a1.64,1.64,0,0,0-.33-.92c-1.08-1.4-.75-2.83-.48-4.45a24.18,24.18,0,0,0-.22-5.42c-.1-1.48-.37-3-.33-4.44.06-1.72.66-3.42-.25-5.1a1.39,1.39,0,0,1,.23-1.15,20.17,20.17,0,0,1,2.07-2.77,2.48,2.48,0,0,1,2.92-.71,9.76,9.76,0,0,0,6.57-.16c2.13-.66,4.33-1.07,6.51-1.55a10.14,10.14,0,0,1,2-.19,43.59,43.59,0,0,0,6.14-.23c1.71-.25,3.57.48,5.36.8.48.09,1,.27,1.43.39,1.48.4,1.89.86,2,2.43C156.76,68.46,156.72,69.71,156.72,71Z"/><path d="M359,68.46c.42,0,1.23-.16,2.05-.18a70.32,70.32,0,0,1,12.86,1.1,36.87,36.87,0,0,0,5.95.37,5.55,5.55,0,0,0,2.27-.94,2.1,2.1,0,0,1,2.54.22,9.67,9.67,0,0,0,3.32,2c1.71.54,2.73,4.06,2.1,6.14-.31,1-.71,2-1,3.07a8.79,8.79,0,0,0-.41,4.34,32.29,32.29,0,0,1,.08,5.74,1.52,1.52,0,0,1-.27.93c-1.27,1.37-1.12,3-1.17,4.72-.1,3-.32,6.09-.34,9.13a69.92,69.92,0,0,1-.55,10.33c-.15.94.32,2,.36,2.93.07,1.67-.05,3.34,0,5,.13,2.73.46,5.46.49,8.2,0,2.12-.18,4.19.44,6.33.43,1.44,0,3.13,0,4.71a5.17,5.17,0,0,0-.12,1.21,22.09,22.09,0,0,1,.3,6.34,69.51,69.51,0,0,1-.89,7.64c-.07.49-.32,1.06-.16,1.46.68,1.74-.06,3.42-.09,5.12,0,3.3,0,6.6,0,9.9,0,1.82-.38,3.63-.41,5.44-.07,4-.22,8,0,12a57,57,0,0,1-.06,7.84c-.17,2.22.35,4.49-.5,6.67a1.59,1.59,0,0,0,0,1c1.07,3-.18,6.07,0,9.11a5.53,5.53,0,0,0,.11,2c1.16,2.27.55,4.5.06,6.76-.26,1.21-.42,2.45-.68,3.66a1.36,1.36,0,0,1-1.44,1.11c-2.88.14-5.76.46-8.59-.43a9.34,9.34,0,0,0-2-.13c-2.23-.16-4.45-.33-6.68-.51a1.16,1.16,0,0,1-.7-.21,33.08,33.08,0,0,1-2.48-3.08,4.26,4.26,0,0,1-.34-3.82,6.71,6.71,0,0,0,.23-4.36c-.82-2.26-.41-4.61-.44-6.92,0-.41.2-.84.1-1.21-1.18-4.26-.43-8.6-.66-12.91-.1-1.73-.37-3.45-.49-5.18-.13-1.9-.39-3.82.62-5.62a2.28,2.28,0,0,0,.33-1.42c-.63-3.06.23-6.16-.5-9.26a59.61,59.61,0,0,1-1-8.36c-.09-1.07.21-2.38-.9-2.92s-2,.46-2.74,1.23a17.17,17.17,0,0,1-1.58,1.19c-1.64,1.26-3.28,2.53-4.93,3.78a8.17,8.17,0,0,1-1.43,1c-2.35,1.08-3.8,3.08-5.4,5s-2.76,4.21-5.12,5.21c-2,.84-3,2.75-4.68,3.83a2.64,2.64,0,0,0-1,1.35c-.95,3.44-3.13,6.18-5.09,9a2.31,2.31,0,0,1-.91.79,5.57,5.57,0,0,0-2.89,3.28,4.34,4.34,0,0,1-.74,1.29c-1.31,1.35-1.83,3.08-2.51,4.77a12.22,12.22,0,0,1-2.3,3.49,40.4,40.4,0,0,0-5.35,8,50.69,50.69,0,0,1-4.47,5.94,22.55,22.55,0,0,0-1.68,2.14c-1.53,2.55-4.48,3.5-7,1.79a11.36,11.36,0,0,0-6.83-1.84c-1.31,0-2.62-.27-3.94-.4a3.37,3.37,0,0,0-1.48,0c-2.06.82-3.72,0-5.32-1.15a23.56,23.56,0,0,1-2.19-1.64,5,5,0,0,1-.52-6.7,5.29,5.29,0,0,1,1.88-1.09c.85-.4,1.62-.75,1.67-1.91a2.65,2.65,0,0,1,.72-1.56c2.25-2.36,3.6-5.33,5.49-7.93,1.17-1.6,2.62-3,3.88-4.54,1-1.22,1.87-2.53,2.84-3.77.71-.9,1.49-1.76,2.24-2.63.32-.37.79-.67.95-1.1a11.45,11.45,0,0,1,3.15-4.14c.06-.05.14-.1.17-.17,1.44-2.79,3.82-4.94,5.26-7.72a17.11,17.11,0,0,1,1.29-2.14c2.11-2.86,4-6,6.47-8.46,1.91-1.91,3.28-4.36,5.68-5.79a3.2,3.2,0,0,0,1-1.05,7.22,7.22,0,0,1,3.12-2.75c.71-.34,1.36-.74,1.12-1.69s-.74-1.6-1.69-1.55c-2.44.12-4.39-1.41-6.66-1.88-1.41-.3-2.61-1.44-4-1.93-3.34-1.18-6.16-3.24-9.11-5.09-1.9-1.18-3.85-2.3-5.65-3.62a20.7,20.7,0,0,1-3.39-3.23c-.86-1-1.46-2.2-2.66-2.9a2.37,2.37,0,0,1-1.06-1c-.85-2.35-2.8-4.06-3.71-6.34s-1.58-4.54-2.36-6.81a1.91,1.91,0,0,1-.13-.73c.29-2.8-.4-5.6,0-8.38.14-1,.77-2,.92-3.07.32-2.34,1.95-4.19,2.29-6.5a14.75,14.75,0,0,1,.52-2.92c.87-2.31,1.87-4.59,2.88-6.85a4.8,4.8,0,0,1,1.1-1.34c1.24-1.2,2.74-2.17,3.5-3.82a1.19,1.19,0,0,1,.54-.5c2.23-1.09,3.49-3.22,5.24-4.81,2.38-2.16,4.74-4.38,7.95-5.43s6.3-2.08,9.69-2a2.21,2.21,0,0,0,1.21-.22c1.72-1.12,3.74-1.27,5.64-1.81,2.31-.64,4.6-1.38,6.89-2.08.24-.08.49-.25.71-.22,2.84.36,5.32-1,8-1.58a58.86,58.86,0,0,1,7.38-.95C353.6,68.65,356.08,68.6,359,68.46Zm4.29,49.85c-.08-6.87-.06-13.73.51-20.57a6,6,0,0,1,.48-1.91c.38-.83.07-1-.68-1-3.75,0-7.5,0-11.25,0a16.5,16.5,0,0,1-3.23-.18,15.88,15.88,0,0,0-7.63.11,9.81,9.81,0,0,1-3.43.46,8,8,0,0,0-3.85.55,3.18,3.18,0,0,1-3.31-.08,1.23,1.23,0,0,0-1.13-.07c-2,1.56-4.58,1.82-6.54,3.42s-4.08,3-6.06,4.64c-1.44,1.15-2.23,2.89-3.43,4.22a11.85,11.85,0,0,0-2.27,4.63,4.33,4.33,0,0,0,.18,2.4c.73,2.45,1.57,4.87,2.36,7.31.44,1.36.3,3.09,2.3,3.45.23,0,.45.48.57.77a4.93,4.93,0,0,0,2.46,2.35c.51.28,1.21.48,1.46.92.7,1.27,1.95,1.46,3.1,1.87,2,.72,4.16,1.23,6.1,2.14a44.82,44.82,0,0,0,7.48,2.69c1,.27,2.11.43,3.12.76a24.68,24.68,0,0,0,10.56.92,47.12,47.12,0,0,1,5.45-.11c.65,0,1.31.22,2,.22,5.28,0,5.28-.9,5.1-5.74-.05-1.4-.35-2.79-.37-4.19C363.2,125,363.24,121.64,363.24,118.31Z"/><path d="M247.81,158c.3-4.87.16-9.78,1.22-14.6.26-1.19-.2-2.58.18-3.71.7-2.11,0-4.07-.1-6.1s-.2-4.14-.29-6.2a2.76,2.76,0,0,1,0-.75c.71-2.56-.25-5.11-.05-7.67.15-1.91.4-3.81.39-5.71a46,46,0,0,0-.46-6.2c-.58-4-.71-8.08-1.05-12.12-.4-4.6-.26-9.26-1.25-13.84-.53-2.47-.18-5.15-.13-7.73,0-1.12,1.71-2.62,3.26-2.48a33.49,33.49,0,0,0,6.73-.55,79.91,79.91,0,0,0,10.54-1.43,20,20,0,0,1,5.18-.48,4.14,4.14,0,0,1,2.68,1.06,8.07,8.07,0,0,1,2.45,7,29.38,29.38,0,0,0,0,9.17,22.43,22.43,0,0,0,1,4.86,2.88,2.88,0,0,1-.07,1.19c0,.5-.31,1.09-.12,1.46.83,1.69.2,3.34-.23,4.86-.55,1.93-.4,3.91-1,5.86-.56,1.79-.18,4,.17,5.91a22,22,0,0,1-.15,5.9c-.28,3-1,5.88-1.2,8.84a32.38,32.38,0,0,0,.44,9.57,17,17,0,0,1,.73,5.14c-.43,4.44.56,8.65,1.49,12.9a17.31,17.31,0,0,1,.18,3.23,32,32,0,0,0,.06,3.25A53.46,53.46,0,0,1,278,173.4c-.55,3.18-.77,6.41-1.27,9.59a47,47,0,0,1-2,8.95,21.81,21.81,0,0,1-2.77,4.59c-2.28,3.5-5,6.61-7.53,9.91-1.12,1.47-2.45,2.93-2.32,5.08a2.53,2.53,0,0,1-.84,1.71,11.84,11.84,0,0,1-4.76,3.08,2.09,2.09,0,0,0-1.75,1.86c-.14,1.25-1,1.79-1.94,2.37a43.6,43.6,0,0,1-8.16,3.59,62.76,62.76,0,0,1-8.74,2.84c-1.53.3-3.09.48-4.63.78-3.09.6-6.13,1.43-9.35,1.06a9.28,9.28,0,0,1-4.44-1.42,11.46,11.46,0,0,0-5.92-2.16c-2.1-.16-4-1.7-6.32-1.73-.32,0-.62-.52-1-.78s-.9-.9-1.41-1c-2.23-.35-3.78-2-5.68-2.92-.8-.41-1.49-1-2.26-1.51-.62-.37-1.3-.63-1.93-1a8.85,8.85,0,0,1-2.48-1.53c-1.91-2.17-3.67-4.48-5.46-6.76-1.23-1.56-2.51-3.09-3.59-4.75a8.82,8.82,0,0,1-1.25-3.21,17.45,17.45,0,0,0-1.87-6.39,3.91,3.91,0,0,1-.61-1.62c-.24-2.55-.4-5.11-.59-7.67a11.64,11.64,0,0,0-.2-2c-.52-2-1.15-4-1.64-6-.4-1.6-.66-3.24-1-4.86-.06-.32-.23-.73-.11-1,.89-1.67-.13-3.24-.17-4.86l-.06-2.15c0-.57,0-1.15,0-1.71,0-.33-.23-.63-.26-1-.37-3.79-.71-7.58-1.07-11.37a4.23,4.23,0,0,0-.23-1.7,6.24,6.24,0,0,1-.65-4.59c.55-2.55-1-4.81-.64-7.29.05-.43-.38-.9-.52-1.38s-.5-1.22-.31-1.65c.65-1.54,0-3-.16-4.42-.19-2.13-.91-4.26-.77-6.35.2-2.87-.16-5.7-.15-8.54s.1-5.84,0-8.75c-.13-2.46-.64-4.91-.83-7.37-.11-1.56.07-3.14.1-4.71,0-.81,0-1.62,0-2.44,0-.55,0-1.11.05-1.66a6.91,6.91,0,0,0,.06-2,3.82,3.82,0,0,1,0-2.41,3.87,3.87,0,0,0,0-1.73c-.13-1.14-.37-2.27-.51-3.42a2.16,2.16,0,0,0-1.51-2c-2-.79-2.18-1.26-2-3.45a30.28,30.28,0,0,1,.57-3.68,4,4,0,0,1,.9-1.43c.69-.84,1.46-1.59,2.13-2.44A3.25,3.25,0,0,1,171.34,65a29.17,29.17,0,0,1,5.35,1c1.87.56,3.64,1.08,5.59.44a3,3,0,0,1,1.46.18,16.83,16.83,0,0,0,5.9.7,1.41,1.41,0,0,1,.74,0c2.63,1.22,5.28,2.41,7.84,3.76a2.22,2.22,0,0,1,.93,2.86,21.77,21.77,0,0,0-1,6.61c0,1.27-.78,2.5-1.15,3.77a11.23,11.23,0,0,0-.68,2.86,47.93,47.93,0,0,1-.95,7.63,27.54,27.54,0,0,0-.16,5c0,1.79.61,3.51.09,5.38-.28,1,.28,2.26.49,3.4.32,1.71.73,3.4,1,5.12a27.68,27.68,0,0,1,.42,4.44c0,1.71-.27,3.42-.4,5.13a3.7,3.7,0,0,0,0,1.24c.69,2.64.54,5.36.77,8,.2,2.31.53,4.61.67,6.92.19,3.31-.12,6.63.44,10,.28,1.66-.27,3.45-.25,5.18a33.11,33.11,0,0,0,.45,5.17c1.08,6.53,2.24,13,3.4,19.56.14.81.41,1.59.63,2.39.47,1.67,1,3.33,1.41,5,.59,2.22,2.09,3.91,3.35,5.73.52.75,1.14,1.42,1.71,2.13,1.1,1.36,2.15,2.72,4.11,3a4.52,4.52,0,0,1,2,.94c1.67,1.28,3.67,1.46,5.61,1.76a10.55,10.55,0,0,0,3.2-.23,21,21,0,0,0,3.61-.81,13.21,13.21,0,0,0,3.06-1.51c2-1.37,4.16-2.69,5.49-4.9,1.16-1.91,2.47-3.74,3.65-5.64a9.18,9.18,0,0,0,1-2.23c.72-2.46,1.4-4.92,2-7.4a18,18,0,0,1,2.35-5.18,13.28,13.28,0,0,0,1.79-6.62C247.37,163.13,247.62,160.57,247.81,158Z"/><path d="M231.35,25.78c1.52,0,2.85.95,2.55,2-.74,2.44.88,4.3,1.27,6.44a27.13,27.13,0,0,1,.57,2.88,34.24,34.24,0,0,1-1,11.09,3.54,3.54,0,0,1-.69,1.55c-2.1,2.17-2.85,5-3.85,7.72a46.36,46.36,0,0,0-1.42,5.51,3.41,3.41,0,0,0,0,1.49c.6,2.57,1.21,5.14,1.91,7.68.39,1.4.17,2.17-1.13,2.81a3.59,3.59,0,0,1-1.17.39c-2,.22-4.11.47-6.17.54a3.25,3.25,0,0,1-2-.79,13.17,13.17,0,0,1-1.89-2.29,24.8,24.8,0,0,1-3.5-8.46,8.94,8.94,0,0,1,.87-6.07c1.41-2.88,2.93-5.72,4.56-8.49.83-1.41,1.9-2.63,2.69-4.11a16.44,16.44,0,0,0,1.52-5.7,6.92,6.92,0,0,0-1-3.48,38.6,38.6,0,0,0-2.1-3.38c-.86-1.41-.61-2.48.92-3.26,2.67-1.35,5.39-2.59,8.1-3.84A3.16,3.16,0,0,1,231.35,25.78Z"/><path d="M272.4,18c-.5,3.12-.57,5.83-2.86,7.73a3,3,0,0,0-.77,1.24,15.41,15.41,0,0,1-3.86,5.73c-2.28,2.29-3.22,5.11-4.07,8-.39,1.37.26,2.62.79,3.83s1.21,2.37,1.76,3.58a1.89,1.89,0,0,1-.83,2.72,21.7,21.7,0,0,1-2.53,1c-1.84.73-3.66,1.51-5.53,2.15a5.06,5.06,0,0,1-2.19.19,1.76,1.76,0,0,1-1.57-1.94c.49-2-.2-3.95-.63-5.83a25.06,25.06,0,0,1,.31-11.07,12.72,12.72,0,0,1,3-6.18,16,16,0,0,0,2.25-3.79c.85-1.71,1.58-3.47,2.32-5.23a9.33,9.33,0,0,0,.37-6.32c-.48-1.66-.68-3.39-1-5.09a2.05,2.05,0,0,1,1-2.33,2.92,2.92,0,0,1,1.36-.59c2.3-.08,4.6-.1,6.9,0a1.79,1.79,0,0,1,1.2.78c1.25,1.84,2.73,3.57,3.26,5.83C271.49,14.47,272,16.46,272.4,18Z"/><path d="M195.45,6.31c.34,0,.67,0,1,0,3.65-.16,3-.31,5.15,2.79a17.33,17.33,0,0,1,2.9,8.82c.13,2.57.06,5.52-2.37,7.53a5.17,5.17,0,0,0-1,1.68,30.94,30.94,0,0,1-4.3,6,13.36,13.36,0,0,0-3.52,8.28,6.63,6.63,0,0,0,.6,2.63c.54,1.3,1.27,2.52,1.87,3.8a2,2,0,0,1-.93,2.9,16.3,16.3,0,0,1-2.08.81c-1.86.69-3.7,1.42-5.59,2a6.85,6.85,0,0,1-2.43.25c-1.06-.07-1.72-.71-1.45-1.61.68-2.32-.3-4.42-.76-6.53a18.55,18.55,0,0,1-.25-5.93,40.58,40.58,0,0,1,1.51-7,6.41,6.41,0,0,1,1.76-2.91c1.76-1.56,2.43-3.71,3.4-5.67a27,27,0,0,0,1.83-5.1,10.29,10.29,0,0,0,.32-3.66c-.23-2-.74-4.06-1.14-6.08-.33-1.7.33-2.78,2-3a29,29,0,0,1,3.49,0Z"/><text class="cls-1" transform="translate(23.84 285.7)">NOW<tspan class="cls-2" x="126.39" y="0"> </tspan><tspan class="cls-3" x="137.44" y="0">Y</tspan><tspan class="cls-4" x="167.14" y="0">OU RUN</tspan></text></svg>