<?xml version="1.0" encoding="utf-8"?>
<!-- Generator: Adobe Illustrator 24.2.3, SVG Export Plug-In . SVG Version: 6.00 Build 0)  -->
<svg version="1.1" id="Layer_1" xmlns="http://www.w3.org/2000/svg" xmlns:xlink="http://www.w3.org/1999/xlink" x="0px" y="0px"
	 viewBox="0 0 413.8 302.2" style="enable-background:new 0 0 413.8 302.2;" xml:space="preserve">
<style type="text/css">
	.st0{enable-background:new    ;}
</style>
<g>
	<path d="M156.7,71c-0.8,5.7-0.2,11.4-1.4,17.1c-0.8,3.1-0.9,6.3-0.3,9.4c0.3,1.4-0.3,3.1-0.5,4.7c-0.1,0.4-0.2,0.8-0.2,1.2
		c-0.2,7.6-0.9,15.3-0.7,22.9c0.2,7.4,0.1,14.8,0,22.2c0,2.3-0.4,4.6-0.4,6.9c0.1,1.3,0.2,2.6,0.4,3.9c0.1,0.7,0.1,1.5,0.1,2.2
		c-0.2,2.5-0.6,4.9-0.8,7.4c-0.1,1.3-0.1,2.6-0.2,4s0.1,3-0.7,4.4c-0.2,0.6-0.3,1.3-0.2,1.9c0,4.3-0.1,8.7,0,13
		c0,2.7,0.4,5.5,0.4,8.2c0,1-0.1,2-0.5,2.9c-1.3,2.8-1.1,5.7-0.6,8.6c0.4,1.8,0.3,3.6-0.2,5.4c-0.3,1.2-1.5,2.1-2.8,2
		c-1.3,0-2.7,0.5-3.9,0.3c-1.8-0.2-3.5-1-4.9-2.2c-1.9-1.9-3.7-4-5.7-5.9c-1.1-1.1-2.5-1.9-3.7-2.9c-1.5-1.2-3.3-2-4.2-3.9
		c-0.2-0.4-1-0.5-1.4-0.8c-0.9-0.4-1.7-0.9-2.5-1.6c-2.5-2.7-5.2-5.1-8-7.5c-1.8-1.6-3.4-3.4-4.7-5.4c-1.8-2.6-3.3-5.6-5.8-7.7
		c-0.7-0.7-1.2-1.6-1.4-2.5c-0.6-1.7-1.1-3.3-2.8-4.2c-0.4-0.2-0.6-0.8-0.9-1.1c-1.3-1.4-2.4-2.9-4.3-3.7c-0.6-0.4-1.2-0.9-1.5-1.6
		c-1.9-3.1-3.9-6.2-7-8.3c-0.4-0.2-0.7-0.5-0.8-0.9c-0.8-2.3-2.8-3.4-4.2-5.1c-2-2.4-4.8-4-7.1-6c-1.1-0.7-2.2-1.4-3.4-1.9
		c-0.6-0.4-1.2-0.9-1.7-1.4c-0.8-0.7-1.5-1.5-2.2-2.3c-0.5-0.6-0.9-1.2-1.4-1.8c-0.7-1-1.1-2.2-2.3-2.9c-0.3-0.2-0.6-0.6-0.7-0.9
		c-0.8-2-2-3.8-3.6-5.3c-0.8-0.8-1.3-1.9-2-2.8c-1.3-1.8-2.7-3.5-4.1-5.3c-0.3-0.4-0.7-0.3-0.9,0.2c-0.1,0.3-0.2,0.7-0.3,1
		c-0.2,2.7-0.5,5.5-0.6,8.2c-0.2,4.1-0.4,8.1-0.4,12.2c0,6.6,0.2,13.1,0.5,19.7c0,1.8,0.4,3.6,0.5,5.4s0.2,3.6,0.3,5.4
		s0.4,3.6,0.6,5.4c0.4,4,0.6,7.9,1.1,11.9c0.4,2.1,0.9,4.2,1.5,6.3c0.7,2.6,1.8,5.2,1.5,8c-0.1,1.7-0.3,3.5-0.7,5.2
		c-0.5,1.6-1.6,3-3,3.9c-0.3,0.2-0.6,0.3-0.9,0.2c-1.8-0.2-3.6-0.5-5.4-0.8c-0.1,0-0.2-0.1-0.2,0c-2.4,0.8-4.9-0.2-7.3,0.3
		c-0.7,0.1-1.3,0.1-2,0.1l-3.5,0.4c-3.1,0.3-4.8-0.4-5.7-2.8c-0.5-1.3-1-2.6-1.5-3.9c-0.4-0.7-0.5-1.6-0.1-2.4
		c0.2-0.5,0.2-1,0.1-1.5c-0.1-1.7-0.2-3.5-0.4-5.2c-0.2-2.6-0.3-5.1-0.8-7.7c-0.3-2.1-0.3-4.2,0-6.2c0.3-3.6,0.5-7.1-0.4-10.7
		c-0.5-1.8-0.5-3.6-0.2-5.4c1-6.1,1.5-12.3,1.4-18.6c0-3.2,0.6-6.4,0.8-9.6c0.2-2.7,0.5-5.5-0.2-8.2c-0.1-0.2-0.1-0.5-0.1-0.7
		c-0.2-4.6-0.4-9.3-0.5-13.9c0-1.4,0-2.8,0-4.2c0-0.2,0-0.5,0-0.8c-0.6-2.7-1.3-5.3-0.6-8.1c0-0.5-0.1-1-0.4-1.4
		c-0.6-1.8-0.8-3.7-0.6-5.5c0-0.4,0-0.8,0-1.2c-0.6-3.2-0.6-6.5,0-9.7c0-0.4-0.1-0.8-0.2-1.2c0-1.7-0.1-3.5-0.1-5.2
		c0-3,0.4-6,0.2-8.9s2.5-6,5.5-5.3c1.6,0.4,3.2,0.9,4.8,1.3c0.8,0.3,1.5,0.8,2,1.6c0.9,1.1,2.1,2.1,3.4,2.8c2.8,1.6,5.3,3.7,7.3,6.2
		c1.7,2.1,3.5,4,5.4,5.8c3,2.8,5.8,5.8,8.5,8.8c1.8,2,3.3,4.3,5.4,6.1c1.2,1.1,2.1,2.3,2.9,3.7c2.2,3.7,5.3,6.6,8.2,9.7
		c1.6,1.7,3,3.5,4.1,5.6c1.1,1.8,2.4,3.6,3.8,5.3c0.4,0.5,0.8,1.1,1.1,1.7c1.2,2.1,2.5,4.1,3.9,6c1.6,2.4,3.7,4.3,5.5,6.4
		c1.5,1.7,2.8,3.7,4.3,5.4c1.5,1.8,3,3.5,4.7,5.1c3,2.8,6.3,5.4,9.3,8.3c1.4,1.5,2.6,3,3.7,4.7c1.4,1.9,3.1,3.4,5.2,4.6
		c0.8,0.5,1.1,0.4,1.1-0.5c0-1.1,0-2.2,0-3.2c0-2.3,0.5-4.6-0.5-6.8c-0.1-0.3-0.1-0.7,0-1c0.3-2.8,0.1-5.6-0.7-8.3
		c-0.3-1.2-0.3-2.5-0.1-3.7c0.4-3,0.4-6,0-8.9c-0.5-3.3-0.2-6.7,0.8-9.8c0.7-2.3,0.7-4.8,0.2-7.2c-0.5-2.9-0.5-5.8,0-8.7
		c0.1-0.4,0.2-0.8,0.2-1.2c-0.1-2-0.4-4-0.4-5.9c0-1.6,0.3-3.1,0.4-4.7c0.1-2.2,0.1-4.5,0.1-6.7c0-0.3-0.1-0.7-0.3-0.9
		c-1.1-1.4-0.8-2.8-0.5-4.4c0.1-1.8,0.1-3.6-0.2-5.4c-0.1-1.5-0.4-3-0.3-4.4c0.1-1.7,0.7-3.4-0.2-5.1c-0.1-0.4,0-0.8,0.2-1.2
		c0.6-1,1.3-1.9,2.1-2.8c0.7-0.9,1.9-1.2,2.9-0.7c2.1,0.7,4.5,0.7,6.6-0.2c2.1-0.7,4.3-1.1,6.5-1.5c0.7-0.1,1.3-0.2,2-0.2
		c2,0.1,4.1,0,6.1-0.2c1.7-0.2,3.6,0.5,5.4,0.8c0.5,0.1,1,0.3,1.4,0.4c1.5,0.4,1.9,0.9,2,2.4C156.8,68.5,156.7,69.7,156.7,71z"/>
	<path d="M359,68.5c0.4,0,1.2-0.2,2-0.2c4.3,0,8.6,0.3,12.9,1.1c2,0.3,4,0.4,6,0.4c0.8-0.1,1.6-0.5,2.3-0.9c0.8-0.5,1.8-0.4,2.5,0.2
		c1,0.9,2.1,1.6,3.3,2c1.7,0.5,2.7,4.1,2.1,6.1c-0.3,1-0.7,2-1,3.1c-0.5,1.4-0.6,2.9-0.4,4.3c0.2,1.9,0.2,3.8,0.1,5.7
		c0,0.3-0.1,0.7-0.3,0.9c-1.3,1.4-1.1,3-1.2,4.7c-0.1,3-0.3,6.1-0.3,9.1c0.1,3.5-0.1,6.9-0.5,10.3c-0.1,0.9,0.3,2,0.4,2.9
		c0.1,1.7,0,3.3,0,5c0.1,2.7,0.5,5.5,0.5,8.2c0,2.1-0.2,4.2,0.4,6.3c0.4,1.4,0,3.1,0,4.7c-0.1,0.4-0.1,0.8-0.1,1.2
		c0.4,2.1,0.5,4.2,0.3,6.3c-0.2,2.6-0.5,5.1-0.9,7.6c-0.1,0.5-0.3,1.1-0.2,1.5c0.7,1.7-0.1,3.4-0.1,5.1c0,3.3,0,6.6,0,9.9
		c0,1.8-0.4,3.6-0.4,5.4c-0.1,4-0.2,8,0,12c0.2,2.6,0.1,5.2-0.1,7.8c-0.2,2.2,0.4,4.5-0.5,6.7c-0.1,0.3-0.1,0.7,0,1
		c1.1,3-0.2,6.1,0,9.1c-0.1,0.7,0,1.3,0.1,2c1.2,2.3,0.5,4.5,0.1,6.8c-0.3,1.2-0.4,2.4-0.7,3.7c-0.1,0.7-0.7,1.2-1.4,1.1
		c-2.9,0.1-5.8,0.5-8.6-0.4c-0.7-0.1-1.3-0.2-2-0.1c-2.2-0.2-4.5-0.3-6.7-0.5c-0.2,0-0.5-0.1-0.7-0.2c-0.9-1-1.7-2-2.5-3.1
		c-0.7-1.1-0.8-2.6-0.3-3.8c0.6-1.4,0.6-2.9,0.2-4.4c-0.8-2.3-0.4-4.6-0.4-6.9c0-0.4,0.2-0.8,0.1-1.2c-1.2-4.3-0.4-8.6-0.7-12.9
		c-0.1-1.7-0.4-3.4-0.5-5.2c-0.1-1.9-0.4-3.8,0.6-5.6c0.3-0.4,0.4-0.9,0.3-1.4c-0.6-3.1,0.2-6.2-0.5-9.3c-0.5-2.8-0.9-5.6-1-8.4
		c-0.1-1.1,0.2-2.4-0.9-2.9s-2,0.5-2.7,1.2c-0.5,0.4-1,0.8-1.6,1.2c-1.6,1.3-3.3,2.5-4.9,3.8c-0.4,0.4-0.9,0.7-1.4,1
		c-2.4,1.1-3.8,3.1-5.4,5s-2.8,4.2-5.1,5.2c-2,0.8-3,2.8-4.7,3.8c-0.5,0.3-0.8,0.8-1,1.4c-1,3.4-3.1,6.2-5.1,9
		c-0.2,0.3-0.5,0.6-0.9,0.8c-1.4,0.7-2.4,1.8-2.9,3.3c-0.2,0.5-0.4,0.9-0.7,1.3c-1.3,1.4-1.8,3.1-2.5,4.8c-0.6,1.3-1.3,2.5-2.3,3.5
		c-2.1,2.4-3.9,5.1-5.4,8c-1.3,2.1-2.8,4.1-4.5,5.9c-0.6,0.7-1.2,1.4-1.7,2.1c-1.5,2.6-4.5,3.5-7,1.8c-2-1.3-4.4-2-6.8-1.8
		c-1.3,0-2.6-0.3-3.9-0.4c-0.5-0.1-1-0.1-1.5,0c-2.1,0.8-3.7,0-5.3-1.1c-0.8-0.5-1.5-1.1-2.2-1.6c-1.9-1.8-2.1-4.7-0.5-6.7
		c0.5-0.5,1.2-0.9,1.9-1.1c0.9-0.4,1.6-0.8,1.7-1.9c0.1-0.6,0.3-1.1,0.7-1.6c2.2-2.4,3.6-5.3,5.5-7.9c1.2-1.6,2.6-3,3.9-4.5
		c1-1.2,1.9-2.5,2.8-3.8c0.7-0.9,1.5-1.8,2.2-2.6c0.3-0.4,0.8-0.7,1-1.1c0.7-1.6,1.8-3,3.1-4.1c0.1-0.1,0.1-0.1,0.2-0.2
		c1.4-2.8,3.8-4.9,5.3-7.7c0.4-0.7,0.8-1.5,1.3-2.1c2.1-2.9,4-6,6.5-8.5c1.9-1.9,3.3-4.4,5.7-5.8c0.4-0.3,0.8-0.6,1-1.1
		c0.7-1.2,1.8-2.2,3.1-2.8c0.7-0.3,1.4-0.7,1.1-1.7s-0.7-1.6-1.7-1.6c-2.4,0.1-4.4-1.4-6.7-1.9c-1.4-0.3-2.6-1.4-4-1.9
		c-3.3-1.2-6.2-3.2-9.1-5.1c-1.9-1.2-3.9-2.3-5.6-3.6c-1.2-0.9-2.4-2-3.4-3.2c-0.9-1-1.5-2.2-2.7-2.9c-0.4-0.2-0.8-0.6-1.1-1
		c-0.9-2.4-2.8-4.1-3.7-6.3c-0.9-2.3-1.6-4.5-2.4-6.8c-0.1-0.2-0.1-0.5-0.1-0.7c0.3-2.8-0.4-5.6,0-8.4c0.1-1,0.8-2,0.9-3.1
		c0.3-2.3,2-4.2,2.3-6.5c0.1-1,0.2-2,0.5-2.9c0.9-2.3,1.9-4.6,2.9-6.8c0.3-0.5,0.7-1,1.1-1.3c1.2-1.2,2.7-2.2,3.5-3.8
		c0.1-0.2,0.3-0.4,0.5-0.5c2.2-1.1,3.5-3.2,5.2-4.8c2.4-2.2,4.7-4.4,8-5.4s6.3-2.1,9.7-2c0.4,0,0.8,0,1.2-0.2
		c1.7-1.1,3.7-1.3,5.6-1.8c2.3-0.6,4.6-1.4,6.9-2.1c0.2-0.1,0.5-0.2,0.7-0.2c2.8,0.4,5.3-1,8-1.6c2.4-0.5,4.9-0.8,7.4-0.9
		C353.6,68.6,356.1,68.6,359,68.5z M363.3,118.3c-0.1-6.9-0.1-13.7,0.5-20.6c0.1-0.7,0.2-1.3,0.5-1.9c0.4-0.8,0.1-1-0.7-1
		c-3.8,0-7.5,0-11.2,0c-1.1,0-2.2,0-3.2-0.2c-2.5-0.6-5.1-0.5-7.6,0.1c-1.1,0.4-2.3,0.5-3.4,0.5c-1.3-0.1-2.6,0.1-3.9,0.6
		c-1,0.6-2.3,0.6-3.3-0.1c-0.3-0.2-0.8-0.2-1.1-0.1c-2,1.6-4.6,1.8-6.5,3.4s-4.1,3-6.1,4.6c-1.4,1.2-2.2,2.9-3.4,4.2
		c-1.1,1.4-1.9,2.9-2.3,4.6c-0.2,0.8-0.1,1.6,0.2,2.4c0.7,2.4,1.6,4.9,2.4,7.3c0.4,1.4,0.3,3.1,2.3,3.4c0.2,0,0.5,0.5,0.6,0.8
		c0.5,1.1,1.4,1.9,2.5,2.4c0.5,0.3,1.2,0.5,1.5,0.9c0.7,1.3,2,1.5,3.1,1.9c2,0.7,4.2,1.2,6.1,2.1c2.4,1.1,4.9,2,7.5,2.7
		c1,0.3,2.1,0.4,3.1,0.8c3.4,1.1,7,1.4,10.6,0.9c1.8-0.1,3.6-0.2,5.5-0.1c0.6,0,1.3,0.2,2,0.2c5.3,0,5.3-0.9,5.1-5.7
		c0-1.4-0.4-2.8-0.4-4.2C363.2,125,363.2,121.6,363.3,118.3L363.3,118.3z"/>
	<path d="M247.8,158c0.3-4.9,0.2-9.8,1.2-14.6c0.3-1.2-0.2-2.6,0.2-3.7c0.7-2.1,0-4.1-0.1-6.1s-0.2-4.1-0.3-6.2c0-0.2,0-0.5,0-0.8
		c0.7-2.6-0.2-5.1-0.1-7.7c0.1-1.9,0.4-3.8,0.4-5.7c0-2.1-0.2-4.1-0.5-6.2c-0.6-4-0.7-8.1-1.1-12.1c-0.4-4.6-0.3-9.3-1.2-13.8
		c-0.5-2.5-0.2-5.2-0.1-7.7c0-1.1,1.7-2.6,3.3-2.5c2.3,0,4.5-0.1,6.7-0.6c3.5-0.2,7.1-0.7,10.5-1.4c1.7-0.4,3.4-0.5,5.2-0.5
		c1,0,1.9,0.4,2.7,1.1c1.9,1.8,2.8,4.4,2.5,7c-0.5,3-0.5,6.1,0,9.2c0.2,1.7,0.5,3.3,1,4.9c0.1,0.4,0,0.8-0.1,1.2
		c0,0.5-0.3,1.1-0.1,1.5c0.8,1.7,0.2,3.3-0.2,4.9c-0.5,1.9-0.4,3.9-1,5.9c-0.6,1.8-0.2,4,0.2,5.9c0.2,2,0.2,3.9-0.1,5.9
		c-0.3,3-1,5.9-1.2,8.8c-0.3,3.2-0.2,6.4,0.4,9.6c0.5,1.7,0.8,3.4,0.7,5.1c-0.4,4.4,0.6,8.6,1.5,12.9c0.2,1.1,0.2,2.2,0.2,3.2
		c0,1.1,0,2.2,0.1,3.2c0.5,4.9,0.4,9.9-0.4,14.8c-0.5,3.2-0.8,6.4-1.3,9.6c-0.4,3-1,6-2,8.9c-0.7,1.6-1.7,3.2-2.8,4.6
		c-2.3,3.5-5,6.6-7.5,9.9c-1.1,1.5-2.5,2.9-2.3,5.1c0,0.7-0.3,1.3-0.8,1.7c-1.3,1.4-2.9,2.5-4.8,3.1c-0.9,0.2-1.7,0.9-1.8,1.9
		c-0.1,1.2-1,1.8-1.9,2.4c-2.6,1.5-5.3,2.7-8.2,3.6c-2.8,1.2-5.8,2.1-8.7,2.8c-1.5,0.3-3.1,0.5-4.6,0.8c-3.1,0.6-6.1,1.4-9.4,1.1
		c-1.6-0.1-3.1-0.6-4.4-1.4c-1.7-1.3-3.8-2-5.9-2.2c-2.1-0.2-4-1.7-6.3-1.7c-0.3,0-0.6-0.5-1-0.8s-0.9-0.9-1.4-1
		c-2.2-0.4-3.8-2-5.7-2.9c-0.8-0.4-1.5-1-2.3-1.5c-0.6-0.4-1.3-0.6-1.9-1c-0.9-0.4-1.7-0.9-2.5-1.5c-1.9-2.2-3.7-4.5-5.5-6.8
		c-1.2-1.6-2.5-3.1-3.6-4.8c-0.6-1-1-2.1-1.2-3.2c-0.2-2.2-0.8-4.4-1.9-6.4c-0.3-0.5-0.5-1-0.6-1.6c-0.2-2.6-0.4-5.1-0.6-7.7
		c0-0.7-0.1-1.3-0.2-2c-0.5-2-1.1-4-1.6-6c-0.4-1.6-0.7-3.2-1-4.9c-0.1-0.3-0.2-0.7-0.1-1c0.9-1.7-0.1-3.2-0.2-4.9l-0.1-2.1
		c0-0.6,0-1.1,0-1.7c0-0.3-0.2-0.6-0.3-1c-0.4-3.8-0.7-7.6-1.1-11.4c0-0.6,0-1.2-0.2-1.7c-0.8-1.4-1-3-0.6-4.6
		c0.6-2.6-1-4.8-0.6-7.3c0.1-0.4-0.4-0.9-0.5-1.4s-0.5-1.2-0.3-1.6c0.6-1.5,0-3-0.2-4.4c-0.2-2.1-0.9-4.3-0.8-6.4
		c0.2-2.9-0.2-5.7-0.1-8.5s0.1-5.8,0-8.8c-0.1-2.5-0.6-4.9-0.8-7.4c-0.1-1.6,0.1-3.1,0.1-4.7c0-0.8,0-1.6,0-2.4c0-0.6,0-1.1,0.1-1.7
		c0.1-0.7,0.1-1.3,0.1-2c-0.3-0.8-0.3-1.6,0-2.4c0.1-0.6,0.1-1.2,0-1.7c-0.1-1.1-0.4-2.3-0.5-3.4c0-0.9-0.6-1.7-1.5-2
		c-2-0.8-2.2-1.3-2-3.4c0.1-1.2,0.3-2.5,0.6-3.7c0.2-0.5,0.5-1,0.9-1.4c0.7-0.8,1.5-1.6,2.1-2.4c0.8-0.9,2-1.3,3.2-1
		c1.8,0.2,3.6,0.5,5.4,1c1.9,0.6,3.6,1.1,5.6,0.4c0.5-0.1,1,0,1.5,0.2c1.9,0.6,3.9,0.8,5.9,0.7c0.2-0.1,0.5-0.1,0.7,0
		c2.6,1.2,5.3,2.4,7.8,3.8c1,0.6,1.4,1.8,0.9,2.9c-0.7,2.1-1,4.4-1,6.6c0,1.3-0.8,2.5-1.1,3.8c-0.4,0.9-0.6,1.9-0.7,2.9
		c-0.1,2.6-0.4,5.1-0.9,7.6c-0.2,1.7-0.3,3.3-0.2,5c0,1.8,0.6,3.5,0.1,5.4c-0.3,1,0.3,2.3,0.5,3.4c0.3,1.7,0.7,3.4,1,5.1
		c0.3,1.5,0.4,3,0.4,4.4c0,1.7-0.3,3.4-0.4,5.1c-0.1,0.4-0.1,0.8,0,1.2c0.7,2.6,0.5,5.4,0.8,8c0.2,2.3,0.5,4.6,0.7,6.9
		c0.2,3.3-0.1,6.6,0.4,10c0.3,1.7-0.3,3.4-0.2,5.2c0,1.7,0.2,3.5,0.4,5.2c1.1,6.5,2.2,13,3.4,19.6c0.1,0.8,0.4,1.6,0.6,2.4
		c0.5,1.7,1,3.3,1.4,5c0.6,2.2,2.1,3.9,3.4,5.7c0.5,0.8,1.1,1.4,1.7,2.1c1.1,1.4,2.1,2.7,4.1,3c0.7,0.1,1.4,0.5,2,0.9
		c1.7,1.3,3.7,1.5,5.6,1.8c1.1,0.1,2.2,0,3.2-0.2c1.2-0.2,2.4-0.4,3.6-0.8c1.1-0.4,2.1-0.9,3.1-1.5c2-1.4,4.2-2.7,5.5-4.9
		c1.2-1.9,2.5-3.7,3.6-5.6c0.4-0.7,0.8-1.4,1-2.2c0.7-2.5,1.4-4.9,2-7.4c0.5-1.8,1.3-3.6,2.4-5.2c1.2-2,1.8-4.3,1.8-6.6
		C247.4,163.1,247.6,160.6,247.8,158z"/>
</g>
<g>
	<path d="M231.4,25.8c1.5,0,2.9,1,2.6,2c-0.7,2.4,0.9,4.3,1.3,6.4c0.2,0.9,0.4,1.9,0.6,2.9c0.3,3.7-0.1,7.5-1,11.1
		c-0.1,0.6-0.3,1.1-0.7,1.5c-2.1,2.2-2.9,5-3.9,7.7c-0.6,1.8-1.1,3.6-1.4,5.5c-0.1,0.5-0.1,1,0,1.5c0.6,2.6,1.2,5.1,1.9,7.7
		c0.4,1.4,0.2,2.2-1.1,2.8c-0.4,0.2-0.8,0.3-1.2,0.4c-2,0.2-4.1,0.5-6.2,0.5c-0.7,0-1.4-0.3-2-0.8c-0.7-0.7-1.3-1.5-1.9-2.3
		c-1.7-2.6-2.9-5.4-3.5-8.5c-0.4-2.1-0.1-4.2,0.9-6.1c1.4-2.9,2.9-5.7,4.6-8.5c0.8-1.4,1.9-2.6,2.7-4.1c0.8-1.8,1.4-3.7,1.5-5.7
		c0-1.2-0.4-2.4-1-3.5c-0.6-1.2-1.3-2.3-2.1-3.4c-0.9-1.4-0.6-2.5,0.9-3.3c2.7-1.4,5.4-2.6,8.1-3.8C230.7,25.9,231,25.8,231.4,25.8z
		"/>
	<path d="M272.4,18c-0.5,3.1-0.6,5.8-2.9,7.7c-0.4,0.3-0.6,0.8-0.8,1.2c-0.8,2.2-2.2,4.1-3.9,5.7c-2.3,2.3-3.2,5.1-4.1,8
		c-0.4,1.4,0.3,2.6,0.8,3.8s1.2,2.4,1.8,3.6c0.6,0.9,0.3,2.1-0.6,2.6c-0.1,0-0.1,0.1-0.2,0.1c-0.8,0.4-1.7,0.7-2.5,1
		c-1.8,0.7-3.7,1.5-5.5,2.2c-0.7,0.2-1.5,0.3-2.2,0.2c-1-0.1-1.7-1-1.6-1.9c0,0,0,0,0,0c0.5-2-0.2-4-0.6-5.8
		c-0.7-3.7-0.6-7.4,0.3-11.1c0.4-2.3,1.5-4.4,3-6.2c0.9-1.2,1.7-2.4,2.2-3.8c0.9-1.7,1.6-3.5,2.3-5.2c0.9-2,1-4.2,0.4-6.3
		c-0.5-1.7-0.7-3.4-1-5.1c-0.2-0.9,0.2-1.9,1-2.3c0.4-0.3,0.9-0.5,1.4-0.6c2.3-0.1,4.6-0.1,6.9,0c0.5,0.1,0.9,0.4,1.2,0.8
		c1.2,1.8,2.7,3.6,3.3,5.8C271.5,14.5,272,16.5,272.4,18z"/>
	<path d="M195.4,6.3c0.3,0,0.7,0,1,0c3.6-0.2,3-0.3,5.1,2.8c1.8,2.6,2.8,5.7,2.9,8.8c0.1,2.6,0.1,5.5-2.4,7.5
		c-0.4,0.5-0.8,1.1-1,1.7c-1.2,2.2-2.6,4.2-4.3,6c-2.1,2.3-3.3,5.2-3.5,8.3c0,0.9,0.2,1.8,0.6,2.6c0.5,1.3,1.3,2.5,1.9,3.8
		c0.6,0.9,0.3,2.2-0.6,2.8c-0.1,0.1-0.2,0.1-0.3,0.1c-0.7,0.3-1.4,0.6-2.1,0.8c-1.9,0.7-3.7,1.4-5.6,2c-0.8,0.2-1.6,0.3-2.4,0.2
		c-1.1-0.1-1.7-0.7-1.4-1.6c0.7-2.3-0.3-4.4-0.8-6.5c-0.4-2-0.5-4-0.2-5.9c0.3-2.4,0.8-4.7,1.5-7c0.3-1.1,0.9-2.1,1.8-2.9
		c1.8-1.6,2.4-3.7,3.4-5.7c0.8-1.6,1.4-3.3,1.8-5.1c0.3-1.2,0.4-2.4,0.3-3.7c-0.2-2-0.7-4.1-1.1-6.1c-0.3-1.7,0.3-2.8,2-3
		C193.1,6.2,194.3,6.2,195.4,6.3L195.4,6.3z"/>
</g>
<g class="st0">
</g>
<g class="st0">
</g>
<g>
	<polygon points="45.6,274.2 31.9,251.9 24.4,251.9 24.4,287.2 31.5,287.2 31.5,264.9 45.6,287.2 52.8,287.2 52.8,251.9 45.6,251.9 
			"/>
	<path d="M76.4,251c-5.9,0-10.5,2.2-13.6,6.6c-2.3,3.3-3.5,7.4-3.5,12.1c0,5.2,1.4,9.5,4.2,13c3.1,3.6,7.4,5.4,12.8,5.4
		c5.8,0,10.3-2.1,13.5-6.2c2.6-3.4,4-7.8,4-12.9c0-4.8-1.2-8.8-3.5-11.9C87.2,253.1,82.5,251,76.4,251z M83.9,277.8
		c-1.4,2.3-3.8,3.4-7.1,3.4c-3.6,0-6.1-1-7.6-3.1c-1.6-2.2-2.4-4.9-2.4-8.2c0-4.1,0.9-7.1,2.8-9.1c1.8-2,4.1-3,7.1-3c3,0,5.3,1,7,3
		c1.7,2,2.6,4.8,2.6,8.2C86.2,272.4,85.4,275.3,83.9,277.8L83.9,277.8z"/>
	<polygon points="128.9,273.6 122.9,251.9 115.9,251.9 109.8,273.6 104.8,251.9 96.9,251.9 106.2,287.2 113,287.2 119.4,264.5 
		125.7,287.2 132.6,287.2 141.9,251.9 133.9,251.9 	"/>
	<polygon points="183.6,251.9 175.2,266 166.8,251.9 158.1,251.9 171.5,273.1 171.5,287.2 178.9,287.2 178.9,273.1 192.4,251.9 	"/>
	<path d="M206.9,251c-5.9,0-10.5,2.2-13.6,6.6c-2.3,3.3-3.5,7.4-3.5,12.1c0,5.2,1.4,9.5,4.2,13c3.1,3.6,7.4,5.4,12.8,5.4
		c5.8,0,10.3-2.1,13.5-6.2c2.6-3.4,4-7.8,4-12.9c0-4.8-1.2-8.8-3.5-11.9C217.8,253.1,213.1,251,206.9,251z M207.4,281.3
		c-3.6,0-6.1-1-7.6-3.1c-1.6-2.2-2.4-4.9-2.4-8.2c0-4.1,0.9-7.1,2.8-9.1c1.8-2,4.1-3,7.1-3c3,0,5.3,1,7,3c1.7,2,2.6,4.8,2.6,8.2
		c0,3.3-0.8,6.2-2.4,8.7C213,280.1,210.7,281.3,207.4,281.3z"/>
	<path d="M252,273.4c0,2.1-0.3,3.7-0.9,4.9c-1.1,2-3.1,3-6.3,3c-2.6,0-4.3-0.9-5.3-2.8c-0.8-1.3-1.1-3-1.1-5.1v-21.5h-7.4v19.6
		c0,4.2,0.6,7.5,1.8,9.8c2.2,4.4,6.4,6.7,12.5,6.7c6.1,0,10.3-2.2,12.5-6.7c1.2-2.4,1.8-5.6,1.8-9.8v-19.6H252V273.4z"/>
	<path d="M312.1,282.6c-0.1-0.3-0.2-1-0.3-2.4l-0.2-4.3c-0.1-2.2-0.5-3.8-1.4-4.9c-0.3-0.4-0.7-0.8-1.2-1.2c0.7-0.6,1.3-1.3,1.8-2
		c1-1.5,1.4-3.3,1.4-5.6c0-4.3-1.8-7.4-5.3-9c-1.8-0.8-4-1.2-6.6-1.2h-16.2v35.3h7.4v-13.8h8.2c2,0,2.8,0.3,3.1,0.4
		c0.6,0.3,1.4,0.9,1.5,3l0.3,5.4c0.1,1.8,0.2,2.4,0.2,2.8c0.1,0.6,0.3,1.1,0.5,1.5l0.4,0.8h7.8V284l-0.9-0.4
		C312.3,283.5,312.2,282.9,312.1,282.6z M304.9,262.5c0,1.6-0.4,2.7-1.1,3.2c-0.9,0.6-2.2,1-3.9,1h-8.3v-8h8.9
		c1.2,0,2.2,0.2,2.8,0.5C303.9,259.5,304.9,260.3,304.9,262.5z"/>
	<path d="M341.6,273.4c0,2.1-0.3,3.7-0.9,4.9c-1.1,2-3.1,3-6.3,3c-2.6,0-4.3-0.9-5.3-2.8c-0.8-1.3-1.1-3-1.1-5.1v-21.5h-7.4v19.6
		c0,4.2,0.6,7.5,1.8,9.8c2.2,4.4,6.4,6.7,12.5,6.7c6.1,0,10.3-2.2,12.5-6.7c1.2-2.4,1.8-5.6,1.8-9.8v-19.6h-7.4V273.4z"/>
	<polygon points="378,251.9 378,274.2 364.3,251.9 356.8,251.9 356.8,287.2 363.9,287.2 363.9,264.9 377.9,287.2 385.2,287.2 
		385.2,251.9 	"/>
</g>
</svg>
